<svg xmlns="http://www.w3.org/2000/svg" xmlns:xlink="http://www.w3.org/1999/xlink" width="500" zoomAndPan="magnify" viewBox="0 0 375 374.999991" height="500" preserveAspectRatio="xMidYMid meet" version="1.2"><defs><clipPath id="984ee6dda0"><path d="M 122 111 L 253 111 L 253 194.1875 L 122 194.1875 Z M 122 111 "/></clipPath><clipPath id="6cba7d577e"><path d="M 160 108.6875 L 177 108.6875 L 177 194 L 160 194 Z M 160 108.6875 "/></clipPath><clipPath id="22eb696914"><path d="M 198 108.6875 L 215 108.6875 L 215 194 L 198 194 Z M 198 108.6875 "/></clipPath></defs><g id="60cb36663f"><rect x="0" width="375" y="0" height="374.999991" style="fill:#ffffff;fill-opacity:1;stroke:none;"/><rect x="0" width="375" y="0" height="374.999991" style="fill:#120200;fill-opacity:1;stroke:none;"/><g clip-rule="nonzero" clip-path="url(#984ee6dda0)"><path style=" stroke:none;fill-rule:nonzero;fill:#ed5b2d;fill-opacity:1;" d="M 252.523438 157.789062 L 252.523438 147.46875 C 249.917969 147.363281 247.933594 146.84375 246.582031 145.800781 C 245.226562 144.757812 244.390625 143.296875 243.871094 141.316406 C 243.347656 139.335938 243.140625 136 243.140625 131.414062 C 243.140625 126.515625 242.933594 122.96875 242.410156 120.78125 C 241.890625 118.59375 241.054688 116.820312 239.699219 115.359375 C 238.34375 114.003906 236.574219 112.964844 234.382812 112.234375 C 232.195312 111.609375 229.171875 111.191406 225.3125 111.191406 L 223.019531 111.191406 L 223.019531 121.511719 C 226.878906 121.511719 229.277344 121.929688 230.316406 122.65625 C 231.359375 123.386719 231.777344 125.160156 231.777344 127.765625 C 231.777344 135.792969 232.296875 141.421875 233.238281 144.652344 C 234.175781 147.886719 236.46875 150.492188 239.910156 152.574219 C 237.300781 154.035156 235.21875 156.121094 233.863281 159.039062 C 232.507812 161.855469 231.777344 168.003906 231.777344 177.492188 C 231.777344 179.785156 231.464844 181.140625 230.839844 181.867188 C 230.214844 182.496094 229.484375 183.015625 228.753906 183.328125 C 228.023438 183.640625 226.148438 183.746094 223.019531 183.746094 L 223.019531 194.066406 L 225.3125 194.066406 C 231.152344 194.066406 235.007812 193.335938 237.09375 191.980469 C 239.179688 190.519531 240.636719 188.957031 241.578125 187.082031 C 242.515625 185.203125 243.035156 180.929688 243.035156 174.050781 C 243.035156 169.464844 243.246094 166.128906 243.765625 164.148438 C 244.285156 162.167969 245.121094 160.601562 246.476562 159.558594 C 247.832031 158.519531 249.8125 157.890625 252.417969 157.789062 Z M 122.214844 157.789062 C 124.824219 157.890625 126.804688 158.519531 128.15625 159.558594 C 129.511719 160.601562 130.347656 162.0625 130.867188 164.042969 C 131.390625 166.023438 131.597656 169.359375 131.597656 174.050781 C 131.597656 180.722656 132.121094 185.101562 133.058594 187.082031 C 133.996094 189.0625 135.664062 190.730469 137.851562 192.085938 C 140.042969 193.441406 143.898438 194.066406 149.425781 194.066406 L 151.71875 194.066406 L 151.71875 183.746094 C 148.070312 183.746094 145.777344 183.328125 144.628906 182.496094 C 143.480469 181.660156 142.960938 179.992188 142.960938 177.492188 C 142.960938 169.253906 142.441406 163.523438 141.398438 160.289062 C 140.355469 157.058594 138.164062 154.558594 134.933594 152.679688 C 138.476562 150.59375 140.667969 147.886719 141.605469 144.550781 C 142.542969 141.214844 142.960938 135.6875 142.960938 127.871094 C 142.960938 125.160156 143.480469 123.492188 144.523438 122.761719 C 145.566406 122.03125 147.964844 121.617188 151.71875 121.617188 L 151.71875 111.296875 L 149.425781 111.296875 C 144.421875 111.296875 140.667969 111.921875 138.164062 113.171875 C 135.664062 114.421875 133.890625 116.296875 133.058594 118.800781 C 132.121094 121.300781 131.703125 125.472656 131.703125 131.414062 C 131.703125 136 131.492188 139.234375 130.972656 141.214844 C 130.453125 143.195312 129.617188 144.757812 128.261719 145.800781 C 126.90625 146.84375 124.925781 147.46875 122.320312 147.574219 L 122.320312 157.890625 Z M 122.214844 157.789062 "/></g><g clip-rule="nonzero" clip-path="url(#6cba7d577e)"><path style=" stroke:none;fill-rule:evenodd;fill:#ffce6d;fill-opacity:1;" d="M 164.539062 188.957031 L 172.671875 188.957031 C 174.859375 188.957031 176.734375 190.730469 176.734375 193.023438 L 176.734375 112.753906 C 176.734375 110.566406 174.964844 108.6875 172.671875 108.6875 L 164.539062 108.6875 C 162.351562 108.6875 160.472656 110.460938 160.472656 112.753906 L 160.472656 193.023438 C 160.472656 190.832031 162.246094 188.957031 164.539062 188.957031 Z M 164.539062 188.957031 "/></g><path style=" stroke:none;fill-rule:evenodd;fill:#f6f6e9;fill-opacity:1;" d="M 183.71875 187.914062 L 191.851562 187.914062 C 194.039062 187.914062 195.917969 189.6875 195.917969 191.980469 L 195.917969 131.308594 C 195.917969 129.121094 194.144531 127.246094 191.851562 127.246094 L 183.71875 127.246094 C 181.53125 127.246094 179.65625 129.015625 179.65625 131.308594 L 179.65625 191.980469 C 179.65625 194.167969 181.425781 187.914062 183.71875 187.914062 Z M 183.71875 187.914062 "/><g clip-rule="nonzero" clip-path="url(#22eb696914)"><path style=" stroke:none;fill-rule:evenodd;fill:#ffce6d;fill-opacity:1;" d="M 202.171875 188.957031 L 210.304688 188.957031 C 212.492188 188.957031 214.367188 190.730469 214.367188 193.023438 L 214.367188 112.753906 C 214.367188 110.566406 212.597656 108.6875 210.304688 108.6875 L 202.171875 108.6875 C 199.984375 108.6875 198.105469 110.460938 198.105469 112.753906 L 198.105469 193.023438 C 198.105469 190.832031 199.878906 188.957031 202.171875 188.957031 Z M 202.171875 188.957031 "/></g><g style="fill:#f6f6e9;fill-opacity:1;"><g transform="translate(86.169476, 237.436962)"><path style="stroke:none" d="M 20.734375 -16.5625 C 20.734375 -14.945312 20.15625 -13.394531 19 -11.90625 C 18.394531 -11.132812 17.484375 -10.503906 16.265625 -10.015625 C 15.054688 -9.523438 13.625 -9.28125 11.96875 -9.28125 L 8.359375 -9.28125 L 8.359375 0 L 2.546875 0 L 2.546875 -23.875 L 11.96875 -23.875 C 14.726562 -23.875 16.878906 -23.15625 18.421875 -21.71875 C 19.960938 -20.289062 20.734375 -18.570312 20.734375 -16.5625 Z M 8.359375 -13.703125 L 11.96875 -13.703125 C 12.851562 -13.703125 13.550781 -13.960938 14.0625 -14.484375 C 14.570312 -15.003906 14.828125 -15.6875 14.828125 -16.53125 C 14.828125 -17.382812 14.566406 -18.082031 14.046875 -18.625 C 13.523438 -19.175781 12.832031 -19.453125 11.96875 -19.453125 L 8.359375 -19.453125 Z M 8.359375 -13.703125 "/></g></g><g style="fill:#f6f6e9;fill-opacity:1;"><g transform="translate(107.008994, 237.436962)"><path style="stroke:none" d="M 8.359375 -25.15625 L 8.359375 -16.1875 C 9.566406 -18.175781 11.484375 -19.171875 14.109375 -19.171875 C 16.285156 -19.171875 18.046875 -18.445312 19.390625 -17 C 20.742188 -15.550781 21.421875 -13.578125 21.421875 -11.078125 L 21.421875 0 L 15.640625 0 L 15.640625 -10.296875 C 15.640625 -11.523438 15.316406 -12.472656 14.671875 -13.140625 C 14.023438 -13.804688 13.132812 -14.140625 12 -14.140625 C 10.863281 -14.140625 9.972656 -13.804688 9.328125 -13.140625 C 8.679688 -12.472656 8.359375 -11.523438 8.359375 -10.296875 L 8.359375 0 L 2.546875 0 L 2.546875 -25.15625 Z M 8.359375 -25.15625 "/></g></g><g style="fill:#f6f6e9;fill-opacity:1;"><g transform="translate(129.956274, 237.436962)"><path style="stroke:none" d="M 14.109375 -6.015625 C 14.953125 -6.828125 15.375 -7.984375 15.375 -9.484375 C 15.375 -10.984375 14.953125 -12.132812 14.109375 -12.9375 C 13.273438 -13.738281 12.3125 -14.140625 11.21875 -14.140625 C 10.132812 -14.140625 9.171875 -13.734375 8.328125 -12.921875 C 7.492188 -12.109375 7.078125 -10.953125 7.078125 -9.453125 C 7.078125 -7.953125 7.492188 -6.800781 8.328125 -6 C 9.171875 -5.195312 10.132812 -4.796875 11.21875 -4.796875 C 12.3125 -4.796875 13.273438 -5.203125 14.109375 -6.015625 Z M 3.671875 -2.484375 C 1.992188 -4.296875 1.15625 -6.617188 1.15625 -9.453125 C 1.15625 -12.285156 1.992188 -14.613281 3.671875 -16.4375 C 5.347656 -18.257812 7.394531 -19.171875 9.8125 -19.171875 C 12.226562 -19.171875 14.082031 -18.273438 15.375 -16.484375 L 15.375 -18.96875 L 21.1875 -18.96875 L 21.1875 0 L 15.375 0 L 15.375 -2.75 C 13.96875 -0.757812 12.082031 0.234375 9.71875 0.234375 C 7.363281 0.234375 5.347656 -0.671875 3.671875 -2.484375 Z M 3.671875 -2.484375 "/></g></g><g style="fill:#f6f6e9;fill-opacity:1;"><g transform="translate(152.835552, 237.436962)"><path style="stroke:none" d="M 7.859375 -21.109375 C 7.203125 -20.453125 6.394531 -20.125 5.4375 -20.125 C 4.488281 -20.125 3.6875 -20.453125 3.03125 -21.109375 C 2.375 -21.765625 2.046875 -22.570312 2.046875 -23.53125 C 2.046875 -24.5 2.375 -25.3125 3.03125 -25.96875 C 3.6875 -26.632812 4.488281 -26.96875 5.4375 -26.96875 C 6.394531 -26.96875 7.203125 -26.632812 7.859375 -25.96875 C 8.515625 -25.3125 8.84375 -24.5 8.84375 -23.53125 C 8.84375 -22.570312 8.515625 -21.765625 7.859375 -21.109375 Z M 2.546875 0 L 2.546875 -18.96875 L 8.359375 -18.96875 L 8.359375 0 Z M 2.546875 0 "/></g></g><g style="fill:#f6f6e9;fill-opacity:1;"><g transform="translate(162.898307, 237.436962)"><path style="stroke:none" d="M 17 -23.9375 L 17 -19.515625 L 8.359375 -19.515625 L 8.359375 -14.375 L 15.984375 -14.375 L 15.984375 -9.96875 L 8.359375 -9.96875 L 8.359375 -4.421875 L 17 -4.421875 L 17 0 L 2.546875 0 L 2.546875 -23.9375 Z M 17 -23.9375 "/></g></g><g style="fill:#f6f6e9;fill-opacity:1;"><g transform="translate(181.494086, 237.436962)"><path style="stroke:none" d="M 3.78125 -2.40625 C 2.03125 -4.175781 1.15625 -6.535156 1.15625 -9.484375 C 1.15625 -12.429688 2.03125 -14.78125 3.78125 -16.53125 C 5.539062 -18.289062 7.816406 -19.171875 10.609375 -19.171875 C 12.921875 -19.171875 14.878906 -18.597656 16.484375 -17.453125 C 18.097656 -16.304688 19.164062 -14.671875 19.6875 -12.546875 L 13.390625 -12.546875 C 12.847656 -13.679688 11.957031 -14.25 10.71875 -14.25 C 9.488281 -14.25 8.570312 -13.8125 7.96875 -12.9375 C 7.375 -12.0625 7.078125 -10.910156 7.078125 -9.484375 C 7.078125 -8.054688 7.375 -6.90625 7.96875 -6.03125 C 8.570312 -5.15625 9.453125 -4.71875 10.609375 -4.71875 C 11.335938 -4.71875 11.90625 -4.84375 12.3125 -5.09375 C 12.71875 -5.34375 13.078125 -5.785156 13.390625 -6.421875 L 19.6875 -6.421875 C 19.164062 -4.378906 18.085938 -2.757812 16.453125 -1.5625 C 14.828125 -0.363281 12.878906 0.234375 10.609375 0.234375 C 7.816406 0.234375 5.539062 -0.644531 3.78125 -2.40625 Z M 3.78125 -2.40625 "/></g></g><g style="fill:#f6f6e9;fill-opacity:1;"><g transform="translate(201.041749, 237.436962)"><path style="stroke:none" d="M 13.9375 -5.9375 C 14.707031 -6.757812 15.09375 -7.941406 15.09375 -9.484375 C 15.09375 -11.023438 14.695312 -12.195312 13.90625 -13 C 13.113281 -13.8125 12.171875 -14.21875 11.078125 -14.21875 C 9.992188 -14.21875 9.0625 -13.8125 8.28125 -13 C 7.5 -12.195312 7.109375 -11.023438 7.109375 -9.484375 C 7.109375 -7.941406 7.507812 -6.757812 8.3125 -5.9375 C 9.113281 -5.125 10.054688 -4.71875 11.140625 -4.71875 C 12.234375 -4.71875 13.164062 -5.125 13.9375 -5.9375 Z M 4.0625 -2.453125 C 2.144531 -4.242188 1.1875 -6.597656 1.1875 -9.515625 C 1.1875 -12.441406 2.140625 -14.78125 4.046875 -16.53125 C 5.953125 -18.289062 8.304688 -19.171875 11.109375 -19.171875 C 13.921875 -19.171875 16.273438 -18.289062 18.171875 -16.53125 C 20.066406 -14.78125 21.015625 -12.441406 21.015625 -9.515625 C 21.015625 -6.597656 20.070312 -4.242188 18.1875 -2.453125 C 16.3125 -0.660156 13.96875 0.234375 11.15625 0.234375 C 8.34375 0.234375 5.976562 -0.660156 4.0625 -2.453125 Z M 4.0625 -2.453125 "/></g></g><g style="fill:#f6f6e9;fill-opacity:1;"><g transform="translate(222.391204, 237.436962)"><path style="stroke:none" d="M 15.390625 -6 C 16.234375 -6.800781 16.65625 -7.953125 16.65625 -9.453125 C 16.65625 -10.953125 16.234375 -12.109375 15.390625 -12.921875 C 14.554688 -13.734375 13.59375 -14.140625 12.5 -14.140625 C 11.414062 -14.140625 10.453125 -13.738281 9.609375 -12.9375 C 8.773438 -12.132812 8.359375 -10.984375 8.359375 -9.484375 C 8.359375 -7.984375 8.773438 -6.828125 9.609375 -6.015625 C 10.453125 -5.203125 11.414062 -4.796875 12.5 -4.796875 C 13.59375 -4.796875 14.554688 -5.195312 15.390625 -6 Z M 8.359375 -16.484375 C 9.648438 -18.273438 11.503906 -19.171875 13.921875 -19.171875 C 16.335938 -19.171875 18.382812 -18.257812 20.0625 -16.4375 C 21.738281 -14.613281 22.578125 -12.285156 22.578125 -9.453125 C 22.578125 -6.617188 21.738281 -4.296875 20.0625 -2.484375 C 18.382812 -0.671875 16.351562 0.234375 13.96875 0.234375 C 11.59375 0.234375 9.722656 -0.757812 8.359375 -2.75 L 8.359375 0 L 2.546875 0 L 2.546875 -25.15625 L 8.359375 -25.15625 Z M 8.359375 -16.484375 "/></g></g><g style="fill:#f6f6e9;fill-opacity:1;"><g transform="translate(245.270483, 237.436962)"><path style="stroke:none" d="M 7.515625 -0.375 L 0.140625 -18.96875 L 6.734375 -18.96875 L 10.953125 -6.5625 L 15.578125 -18.96875 L 21.65625 -18.96875 L 9.546875 9.046875 L 3.46875 9.046875 Z M 7.515625 -0.375 "/></g></g><g style="fill:#f6f6e9;fill-opacity:1;"><g transform="translate(266.211991, 237.436962)"><path style="stroke:none" d="M 10.609375 -4.9375 L 12.6875 -4.9375 L 12.6875 0 L 9.71875 0 C 7.59375 0 5.945312 -0.46875 4.78125 -1.40625 C 3.613281 -2.351562 3.03125 -3.96875 3.03125 -6.25 L 3.03125 -14.140625 L 1.265625 -14.140625 L 1.265625 -18.96875 L 3.03125 -18.96875 L 3.03125 -23.59375 L 8.84375 -23.59375 L 8.84375 -18.96875 L 12.640625 -18.96875 L 12.640625 -14.140625 L 8.84375 -14.140625 L 8.84375 -6.25 C 8.84375 -5.375 9.429688 -4.9375 10.609375 -4.9375 Z M 10.609375 -4.9375 "/></g></g><g style="fill:#f6f6e9;fill-opacity:1;"><g transform="translate(279.470382, 237.436962)"><path style="stroke:none" d="M 10.609375 0.234375 C 7.835938 0.234375 5.566406 -0.648438 3.796875 -2.421875 C 2.035156 -4.203125 1.15625 -6.566406 1.15625 -9.515625 C 1.15625 -12.460938 2.03125 -14.804688 3.78125 -16.546875 C 5.539062 -18.296875 7.816406 -19.171875 10.609375 -19.171875 C 13.398438 -19.171875 15.710938 -18.3125 17.546875 -16.59375 C 19.378906 -14.875 20.296875 -12.484375 20.296875 -9.421875 C 20.296875 -8.765625 20.25 -8.148438 20.15625 -7.578125 L 7.109375 -7.578125 C 7.222656 -6.742188 7.597656 -6.054688 8.234375 -5.515625 C 8.867188 -4.984375 9.550781 -4.71875 10.28125 -4.71875 C 11.019531 -4.71875 11.570312 -4.789062 11.9375 -4.9375 C 12.300781 -5.09375 12.566406 -5.242188 12.734375 -5.390625 C 12.898438 -5.535156 13.117188 -5.78125 13.390625 -6.125 L 19.6875 -6.125 C 19.144531 -4.21875 18.054688 -2.679688 16.421875 -1.515625 C 14.785156 -0.347656 12.847656 0.234375 10.609375 0.234375 Z M 14.25 -11.21875 C 14.15625 -12.101562 13.765625 -12.820312 13.078125 -13.375 C 12.398438 -13.9375 11.597656 -14.21875 10.671875 -14.21875 C 9.742188 -14.21875 8.960938 -13.9375 8.328125 -13.375 C 7.691406 -12.820312 7.296875 -12.101562 7.140625 -11.21875 Z M 14.25 -11.21875 "/></g></g></g></svg>